# xmcd CD database file
#
# Track frame offsets:
#	150
#	13912
#	23675
#	34472
#	46995
#	57667
#	68555
#	78535
#	90340
#	101745
#	111460
#	124697
#
# Disc length: 1784 seconds
#
# Revision: 0
# Processed by: cddbd v1.4PL0 Copyright (c) Steve Scherf et al.
# Submitted via: CDex 1.40Beta9
#
DISCID=a006f60c
DTITLE=Maddox Brothers and Rose - Maddox Brothers and Rose
DYEAR=1900
DGENRE=Country
TTITLE0=Philadelphia Lawyer
TTITLE1=Chc'late Ice Cream Cone
TTITLE2=You've Been Talking in Your Sleep
TTITLE3=No One Is Sweeter Than You
TTITLE4=Now Step It up and Go
TTITLE5=Gosh, I Miss You All the Time
TTITLE6=I Wish I Was a Single Girl Again
TTITLE7=I'm Sending Daffydills
TTITLE8=Whoa, Sailor
TTITLE9=Water Boy Blues
TTITLE10=Why Don't You Haul Off and Love Me
TTITLE11=Sally Let Your Bangs Hang Down
EXTD=ID3G: 2
EXTT0=
EXTT1=
EXTT2=
EXTT3=
EXTT4=
EXTT5=
EXTT6=
EXTT7=
EXTT8=
EXTT9=
EXTT10=
EXTT11=
PLAYORDER=
